# ProBuilder 4.2.3
# https://unity3d.com/unity/features/worldbuilding/probuilder
# 8/10/2020 11:22:02 AM

mtllib ./Hexagon2.mtl
o Hexagon2

g Cylinder
v -0.06999999 -0.0025 0
v -0.06999999 0.0025 0
v -0.03499999 -0.0025 0.06062178
v -0.03499999 0.0025 0.06062178
v 0.03500001 -0.0025 0.06062178
v 0.03500001 0.0025 0.06062178
v 0.07000001 -0.0025 -6.119594E-09
v 0.07000001 0.0025 -6.119594E-09
v 0.035 -0.0025 -0.06062178
v 0.035 0.0025 -0.06062178
v -0.03499999 -0.0025 -0.06062178
v -0.03499999 0.0025 -0.06062178
v 7.450581E-09 -0.0025 0
v 7.450581E-09 0.0025 0

vt -0.035 -0.0025
vt -0.035 0.0025
vt 0.03500001 -0.0025
vt 0.03500001 0.0025
vt -0.03500001 -0.0025
vt -0.03500001 0.0025
vt 0.035 -0.0025
vt 0.035 0.0025
vt -0.06999999 0
vt 7.450581E-09 0
vt -0.03499999 0.06062178
vt 0.06999999 0
vt 0.03499999 0.06062178
vt 0.03500001 0.06062178
vt -0.03500001 0.06062178
vt 0.07000001 -6.119594E-09
vt -0.07000001 -6.119594E-09
vt 0.035 -0.06062178
vt -0.035 -0.06062178

vn -1 0 -6.882551E-08
vn -0.5 0 0.8660254
vn 0.5000001 0 0.8660253
vn 1 0 -1.204447E-07
vn 0.4999999 0 -0.8660254
vn -0.5 0 -0.8660254
vn 0 -1 0
vn 0 1 0

usemtl Lit
f 8/17/8 14/10/8 6/15/8

usemtl EmissiveBlue
f 6/15/8 14/10/8 4/13/8

usemtl Blue
f 4/13/8 14/10/8 2/12/8

usemtl Ceiling
f 2/12/8 14/10/8 12/18/8

usemtl EmissiveRed
f 12/18/8 14/10/8 10/19/8

usemtl Base
f 10/19/8 14/10/8 8/17/8

usemtl Wall
f 1/9/7 13/10/7 3/11/7
f 3/11/7 13/10/7 5/14/7
f 5/14/7 13/10/7 7/16/7
f 7/16/7 13/10/7 9/18/7
f 9/18/7 13/10/7 11/19/7
f 11/19/7 13/10/7 1/9/7
f 4/4/2 2/2/1 1/1/1
f 1/1/1 3/3/2 4/4/2
f 6/4/3 4/2/2 3/1/2
f 3/1/2 5/3/3 6/4/3
f 8/4/4 6/2/3 5/1/3
f 5/1/3 7/3/4 8/4/4
f 10/8/5 8/6/4 7/5/4
f 7/5/4 9/7/5 10/8/5
f 12/8/6 10/2/5 9/1/5
f 9/1/5 11/7/6 12/8/6
f 2/4/1 12/6/6 11/5/6
f 11/5/6 1/3/1 2/4/1

