# ProBuilder 4.2.3
# https://unity3d.com/unity/features/worldbuilding/probuilder
# 8/11/2020 10:28:14 AM

mtllib ./HH.mtl
o HH

g HH
v -0.02280742 -0.004556799 -0.0150778
v -0.04499999 1.862645E-09 0
v -0.02678889 -0.004556799 0.005465671
v -0.03181979 1.862645E-09 0.03181981
v -0.01507777 -0.004556799 0.02280748
v 0 1.862645E-09 0.045
v 0.005465716 -0.004556799 0.02678892
v 0.03181979 1.862645E-09 0.03181981
v 0.02280748 -0.004556799 0.01507781
v 0.04499999 1.862645E-09 0
v 0.02678895 -0.004556799 -0.005465657
v 0.03181982 1.862645E-09 -0.03181979
v 0.01507783 -0.004556799 -0.02280745
v 0 1.862645E-09 -0.04499999
v -0.005465657 -0.004556799 -0.02678892
v -0.03181979 1.862645E-09 -0.03181982
v 2.980232E-08 -0.004556799 0
v -0.02280742 0.004556801 -0.0150778
v 2.980232E-08 0.004556801 0
v -0.02678889 0.004556801 0.005465671
v -0.01507777 0.004556801 0.02280748
v 0.005465716 0.004556801 0.02678892
v 0.02280748 0.004556801 0.01507781
v 0.02678895 0.004556801 -0.005465657
v 0.01507783 0.004556801 -0.02280745
v -0.005465657 0.004556801 -0.02678892

vt -0.01409781 -0.009754281
vt -0.02919487 0.0003075878
vt -0.01668089 0.003954991
vt -0.02064389 0.02140963
vt -0.01691909 0.002763776
vt -0.0208028 0.02048605
vt -0.009262719 0.01442555
vt 2.373533E-09 0.02974126
vt -0.00990224 0.01399429
vt 1.988602E-09 0.02919648
vt 0.003779068 0.01672164
vt 0.02119096 0.02086829
vt 0.003205312 0.01684104
vt 0.02102305 0.02025995
vt 0.01466285 0.008882328
vt 0.02973109 -0.0007777688
vt 0.01409783 0.009754279
vt 0.02919486 -0.0003075918
vt 0.01668091 -0.003954992
vt 0.02064389 -0.02140963
vt 0.01691911 -0.002763773
vt 0.0208028 -0.02048604
vt 0.009262756 -0.01442554
vt -5.46924E-10 -0.02974126
vt 0.009902277 -0.01399428
vt -1.279101E-10 -0.02919648
vt -0.003779033 -0.01672164
vt -0.02119096 -0.02086829
vt -0.003205278 -0.01684104
vt -0.02102305 -0.02025996
vt -0.01466282 -0.008882332
vt -0.02973109 0.0007777638
vt -0.01520495 -0.01005188
vt 1.490116E-08 0
vt -0.01785927 0.003643781
vt 0.01520495 -0.01005188
vt 0.01785927 0.003643781
vt -0.01005185 0.01520498
vt 0.01005185 0.01520498
vt 0.003643813 0.01785928
vt -0.003643813 0.01785928
vt 0.01520498 0.01005188
vt -0.01520498 0.01005188
vt 0.0178593 -0.003643781
vt -0.0178593 -0.003643781
vt 0.01005189 -0.01520497
vt -0.01005189 -0.01520497
vt -0.003643777 -0.01785928
vt 0.003643777 -0.01785928
vt 0.02884549 0.0009320062
vt 0.02039684 -0.02041813
vt 0.01378516 -0.009184754
vt 0.002668906 -0.01730125
vt 0.02039684 0.02041812
vt 0.02884549 -0.000932005
vt 0.01633733 0.002735296
vt 0.01378517 -0.01079006
vt 0.02106616 -0.01972684
vt 3.283992E-10 -0.02886054
vt 0.003261453 -0.01624049
vt -0.01033928 -0.01412644
vt -0.02106616 -0.01972683
vt -0.009625149 -0.01348138
vt -0.01737843 -0.002108796
vt -0.02039684 -0.02041812
vt -0.02884549 0.0009320071
vt -0.01633736 -0.002735291
vt -0.01378519 0.01079007
vt -0.02884549 -0.0009320138
vt -0.02039684 0.02041812
vt -0.01378519 0.009184749
vt -0.002668937 0.01730125
vt -0.02106616 0.01972683
vt -2.178134E-09 0.02886054
vt -0.003261488 0.01624049
vt 0.01033924 0.01412645
vt 0.02106616 0.01972683
vt 0.009625111 0.01348139
vt 0.0173784 0.002108797

vn -0.216667 -0.9711732 -0.09938794
vn -0.2633913 -0.9638766 -0.03958444
vn -0.2234848 -0.9711732 0.08292876
vn -0.2142363 -0.9638765 0.1582555
vn -0.09938797 -0.9711732 0.2166672
vn -0.03958447 -0.9638765 0.2633918
vn 0.08292907 -0.9711731 0.2234851
vn 0.1582558 -0.9638764 0.2142367
vn 0.2166677 -0.971173 0.0993883
vn 0.2633922 -0.9638764 0.0395847
vn 0.2234852 -0.9711731 -0.08292885
vn 0.2142368 -0.9638764 -0.1582556
vn 0.09938817 -0.9711731 -0.2166674
vn 0.03958461 -0.9638765 -0.2633918
vn -0.08292878 -0.9711732 -0.2234848
vn -0.1582553 -0.9638766 -0.2142363
vn 0 -1 0
vn 0 1 0
vn -0.2729854 0.9553498 -0.1130742
vn -0.2020193 0.9637728 -0.1535685
vn -0.1310531 0.9721959 -0.1940627
vn -0.2729854 0.9553497 0.1130743
vn -0.2514386 0.9637728 0.03425981
vn -0.2298917 0.9721958 -0.04455465
vn -0.1130742 0.9553497 -0.2729858
vn -0.03425976 0.9637727 -0.2514389
vn 0.04455469 0.9721957 -0.2298921
vn 0.1130745 0.9553496 -0.2729861
vn 0.1535689 0.9637727 -0.2020197
vn 0.1940632 0.9721957 -0.1310532
vn 0.2729862 0.9553495 -0.1130744
vn 0.2514393 0.9637725 -0.0342598
vn 0.2298924 0.9721956 0.04455478
vn 0.2729865 0.9553494 0.1130747
vn 0.2020199 0.9637725 0.153569
vn 0.1310534 0.9721957 0.1940634
vn 0.1130745 0.9553496 0.272986
vn 0.03426011 0.9637727 0.2514389
vn -0.04455432 0.9721958 0.2298919
vn -0.1130746 0.9553496 0.272986
vn -0.1535688 0.9637727 0.2020195
vn -0.1940631 0.9721958 0.131053

usemtl Lit
f 1/33/17 17/34/17 3/35/17
f 3/35/17 17/34/17 5/38/17
f 5/38/17 17/34/17 7/40/17
f 7/40/17 17/34/17 9/42/17
f 9/42/17 17/34/17 11/44/17
f 11/44/17 17/34/17 13/46/17
f 13/46/17 17/34/17 15/48/17
f 15/48/17 17/34/17 1/33/17
f 20/37/18 19/34/18 18/36/18
f 21/39/18 19/34/18 20/37/18
f 22/41/18 19/34/18 21/39/18
f 23/43/18 19/34/18 22/41/18
f 24/45/18 19/34/18 23/43/18
f 25/47/18 19/34/18 24/45/18
f 26/49/18 19/34/18 25/47/18
f 18/36/18 19/34/18 26/49/18
f 4/4/4 2/2/2 1/1/1
f 1/1/1 3/3/3 4/4/4
f 6/8/6 4/6/4 3/5/3
f 3/5/3 5/7/5 6/8/6
f 8/12/8 6/10/6 5/9/5
f 5/9/5 7/11/7 8/12/8
f 10/16/10 8/14/8 7/13/7
f 7/13/7 9/15/9 10/16/10
f 12/20/12 10/18/10 9/17/9
f 9/17/9 11/19/11 12/20/12
f 14/24/14 12/22/12 11/21/11
f 11/21/11 13/23/13 14/24/14
f 16/28/16 14/26/14 13/25/13
f 13/25/13 15/27/15 16/28/16
f 2/32/2 16/30/16 15/29/15
f 15/29/15 1/31/1 2/32/2
f 26/53/21 16/51/20 2/50/19
f 2/50/19 18/52/20 26/53/21
f 18/57/24 2/55/23 4/54/22
f 4/54/22 20/56/23 18/57/24
f 25/61/27 14/59/26 16/58/25
f 16/58/25 26/60/26 25/61/27
f 24/64/30 12/62/29 14/59/28
f 14/59/28 25/63/29 24/64/30
f 23/68/33 10/66/32 12/65/31
f 12/65/31 24/67/32 23/68/33
f 22/72/36 8/70/35 10/69/34
f 10/69/34 23/71/35 22/72/36
f 21/76/39 6/74/38 8/73/37
f 8/73/37 22/75/38 21/76/39
f 20/79/42 4/77/41 6/74/40
f 6/74/40 21/78/41 20/79/42

