# ProBuilder 4.2.3
# https://unity3d.com/unity/features/worldbuilding/probuilder
# 8/11/2020 10:31:40 AM

mtllib ./Kick.mtl
o Kick

g Kick
v 0.02365789 0.01956738 -0.0001464784
v 0.03827927 0.001937104 0.02351141
v 0 0.004946001 0.04331169
v -0.02365792 0.01956738 -0.0001464784
v 0 0.004946001 -0.04331169
v 0.03827927 0.001937104 -0.0238044
v -0.03827929 0.001937104 0.02351141
v 0 -0.004945992 0.04331169
v 0.02365789 -0.01956738 -0.0001464784
v 0 -0.004945992 -0.04331169
v -0.03827929 0.001937104 -0.0238044
v -0.02365792 -0.01956738 -0.0001464784

vt 0 0.05103905
vt 0.009747591 0.02551952
vt -0.01577193 0.04129146
vt 0 0
vt 0.01577193 0.02551952
vt 0.03154387 0
vt 0.01577193 -0.02551952
vt 0.01577193 0.04129146
vt -0.009747591 0.02551952
vt -0.01577193 0.02551952
vt -0.03154387 0.05103905
vt -0.04129146 0.02551952
vt -0.01577193 0.009747591
vt 0.01577193 0.009747591
vt 0.03154387 0.05103905
vt 0.04129146 0.02551952
vt -0.03154387 0
vt -0.01577193 -0.02551952

vn 0.2969571 0.8444543 0.4457728
vn 0 0.9477941 0.3188828
vn 0 0.9471385 -0.3208249
vn 0.2943773 0.8444977 -0.4473989
vn 0.7697334 0.6383656 0
vn -0.2969569 0.8444543 0.4457729
vn 0.4594349 0 0.8882115
vn 0.8269564 -0.5622661 0
vn 0.4540465 0 -0.890978
vn -0.2943771 0.8444977 -0.447399
vn -0.3884002 -0.7885758 0.4767531
vn 0 -0.9477941 0.3188829
vn 0 -0.9471385 -0.3208251
vn -0.3857234 -0.7887771 -0.4785898
vn -0.8269564 -0.5622661 0
vn -0.4594347 0 0.8882116
vn 0.3884004 -0.7885758 0.4767529
vn 0.3857236 -0.7887771 -0.4785897
vn -0.4540462 0 -0.8909782
vn -0.7697334 0.6383656 0

usemtl Lit
f 3/3/1 2/2/1 1/1/1
f 4/6/2 3/5/2 1/4/2
f 5/7/3 4/6/3 1/4/3
f 6/9/4 5/8/4 1/1/4
f 2/10/5 6/5/5 1/1/5
f 7/12/6 3/3/6 4/11/6
f 8/13/7 2/2/7 3/3/7
f 9/4/8 6/5/8 2/10/8
f 10/14/9 5/8/9 6/9/9
f 11/16/10 4/15/10 5/8/10
f 8/13/11 7/12/11 12/17/11
f 9/4/12 8/10/12 12/17/12
f 10/18/13 9/4/13 12/17/13
f 11/16/14 10/14/14 12/6/14
f 7/5/15 11/10/15 12/4/15
f 3/3/16 7/12/16 8/13/16
f 2/2/17 8/13/17 9/4/17
f 6/9/18 9/4/18 10/14/18
f 5/8/19 10/14/19 11/16/19
f 4/1/20 11/10/20 7/5/20

