# ProBuilder 4.2.3
# https://unity3d.com/unity/features/worldbuilding/probuilder
# 8/10/2020 3:42:42 PM

mtllib ./Triangle.mtl
o Triangle

g Pipe
v 0.07500004 -0.05 0.08660254
v -0.07499997 -0.05 0
v 0.07500004 0.05 0.08660254
v -0.07499997 0.05 0
v -0.03499997 -0.05 0
v 0.05500004 -0.05 0.05196153
v -0.03499997 0.05 0
v 0.05500004 0.05 0.05196153
v 0.07500003 -0.05 -0.08660255
v 0.07500003 0.05 -0.08660255
v 0.05500003 -0.05 -0.05196153
v 0.05500003 0.05 -0.05196153

vt 0.1082532 -0.05
vt -0.06495188 -0.05
vt 0.1082532 0.05
vt -0.06495188 0.05
vt 0.03031086 -0.05
vt -0.0736122 -0.05
vt 0.03031086 0.05
vt -0.0736122 0.05
vt 0.08660254 -0.05
vt -0.08660255 -0.05
vt 0.08660254 0.05
vt -0.08660255 0.05
vt 0.05196153 -0.05
vt -0.05196152 -0.05
vt 0.05196153 0.05
vt -0.05196152 0.05
vt 0.06495187 -0.05
vt -0.1082532 -0.05
vt 0.06495187 0.05
vt -0.1082532 0.05
vt 0.07361219 -0.05
vt -0.03031086 -0.05
vt 0.07361219 0.05
vt -0.03031086 0.05
vt -0.07499997 0
vt 0.07500004 0.08660254
vt -0.03499997 0
vt 0.05500004 0.05196153
vt -0.07500004 0.08660254
vt 0.07499997 0
vt -0.05500004 0.05196153
vt 0.03499997 0
vt 0.07500003 -0.08660255
vt 0.05500003 -0.05196153
vt -0.07500003 -0.08660255
vt -0.05500003 -0.05196153

vn -0.5 0 0.8660254
vn 0.4999999 0 -0.8660254
vn 1 0 -8.60319E-08
vn -1 0 1.433865E-07
vn -0.5000001 0 -0.8660254
vn 0.5000001 0 0.8660254
vn 0 -1 0
vn 0 1 0

usemtl Lit
f 3/3/1 4/4/1 2/2/1 1/1/1
f 7/7/2 8/8/2 6/6/2 5/5/2
f 10/11/3 3/12/3 1/10/3 9/9/3
f 8/15/4 12/16/4 11/14/4 6/13/4
f 4/19/5 10/20/5 9/18/5 2/17/5
f 12/23/6 7/24/6 5/22/6 11/21/6
f 5/27/7 6/28/7 1/26/7 2/25/7
f 8/31/8 7/32/8 4/30/8 3/29/8
f 6/28/7 11/34/7 9/33/7 1/26/7
f 12/36/8 8/31/8 3/29/8 10/35/8
f 11/34/7 5/27/7 2/25/7 9/33/7
f 7/32/8 12/36/8 10/35/8 4/30/8

